<svg width="21" height="21" viewBox="0 0 21 21" fill="none" xmlns="http://www.w3.org/2000/svg">
<path d="M10.0628 6.56248C9.54574 6.56248 9.03373 6.66433 8.55601 6.86221C8.07829 7.06008 7.64423 7.35012 7.2786 7.71575C6.91297 8.08138 6.62293 8.51544 6.42506 8.99316C6.22718 9.47088 6.12533 9.98289 6.12533 10.5C6.12533 11.0171 6.22718 11.5291 6.42506 12.0068C6.62293 12.4845 6.91297 12.9186 7.2786 13.2842C7.64423 13.6498 8.07829 13.9399 8.55601 14.1377C9.03373 14.3356 9.54574 14.4375 10.0628 14.4375C11.1071 14.4375 12.1086 14.0226 12.847 13.2842C13.5855 12.5458 14.0003 11.5443 14.0003 10.5C14.0003 9.45569 13.5855 8.45417 12.847 7.71575C12.1086 6.97732 11.1071 6.56248 10.0628 6.56248ZM7.43783 10.5C7.43783 10.1553 7.50573 9.81391 7.63765 9.49543C7.76956 9.17695 7.96292 8.88758 8.20667 8.64382C8.45043 8.40007 8.7398 8.20671 9.05828 8.07479C9.37676 7.94288 9.7181 7.87498 10.0628 7.87498C10.4075 7.87498 10.7489 7.94288 11.0674 8.07479C11.3858 8.20671 11.6752 8.40007 11.919 8.64382C12.1627 8.88758 12.3561 9.17695 12.488 9.49543C12.6199 9.81391 12.6878 10.1553 12.6878 10.5C12.6878 11.1962 12.4113 11.8638 11.919 12.3561C11.4267 12.8484 10.759 13.125 10.0628 13.125C9.36663 13.125 8.69895 12.8484 8.20667 12.3561C7.71439 11.8638 7.43783 11.1962 7.43783 10.5ZM16.8091 17.8456L15.2971 17.1815C15.0819 17.088 14.8478 17.0461 14.6135 17.0591C14.3792 17.0722 14.1513 17.1399 13.9478 17.2567C13.5392 17.493 13.2784 17.9103 13.2268 18.3802L13.0448 20.0252C13.0265 20.1905 12.9576 20.3461 12.8475 20.4708C12.7374 20.5954 12.5915 20.6831 12.4297 20.7217C10.873 21.0928 9.25089 21.0928 7.69421 20.7217C7.5326 20.6829 7.38689 20.5952 7.27696 20.4706C7.16703 20.3459 7.09824 20.1904 7.07996 20.0252L6.89796 18.3828C6.87182 18.1517 6.79188 17.9299 6.66454 17.7352C6.5372 17.5406 6.36601 17.3785 6.16471 17.262C5.96361 17.1457 5.73799 17.0783 5.50606 17.0652C5.27412 17.0521 5.04235 17.0937 4.82946 17.1867L3.31747 17.8508C3.16462 17.918 2.99468 17.9359 2.83117 17.9022C2.66766 17.8685 2.51868 17.7848 2.40484 17.6627C1.31658 16.4965 0.506758 15.0988 0.0362253 13.5747C-0.0132507 13.4145 -0.0117015 13.2429 0.0406582 13.0836C0.0930178 12.9244 0.193598 12.7853 0.328475 12.6857L1.6646 11.6987C1.85269 11.5605 2.00563 11.38 2.11104 11.1718C2.21646 10.9635 2.27138 10.7334 2.27138 10.5C2.27138 10.2666 2.21646 10.0364 2.11104 9.82819C2.00563 9.61994 1.85269 9.43942 1.6646 9.30123L0.328475 8.31685C0.193424 8.21721 0.0927315 8.078 0.040364 7.91855C-0.0120035 7.75909 -0.0134499 7.58729 0.0362253 7.42698C0.507733 5.9042 1.31814 4.50804 2.40659 3.34337C2.52053 3.22139 2.66956 3.13785 2.83307 3.10431C2.99657 3.07076 3.16646 3.08886 3.31922 3.15612L4.82421 3.81849C5.03835 3.91065 5.2711 3.95141 5.50381 3.9375C5.73653 3.92359 5.96276 3.85539 6.1644 3.73837C6.36603 3.62136 6.53748 3.45876 6.66501 3.2636C6.79254 3.06845 6.87262 2.84615 6.89883 2.61449L7.08258 0.971247C7.10108 0.80408 7.17131 0.64686 7.28347 0.521528C7.39562 0.396196 7.54411 0.309005 7.70821 0.272124C8.47908 0.100625 9.2657 0.00962497 10.0742 0C10.8634 0.00874998 11.6492 0.100625 12.4192 0.272124C12.5835 0.308935 12.7321 0.396219 12.8443 0.521746C12.9565 0.647273 13.0266 0.804754 13.0448 0.972123L13.2277 2.61537C13.2671 2.97979 13.4396 3.31684 13.7122 3.56193C13.9847 3.80703 14.3381 3.94294 14.7047 3.94361C14.9086 3.94361 15.1107 3.90074 15.2997 3.81762L16.8047 3.15524C16.9574 3.08799 17.1273 3.06988 17.2908 3.10343C17.4543 3.13698 17.6034 3.22052 17.7173 3.34249C18.8055 4.50722 19.6156 5.90338 20.0868 7.42611C20.1364 7.58621 20.135 7.75776 20.0828 7.91703C20.0306 8.07629 19.9301 8.2154 19.7954 8.3151L18.4611 9.30123C18.0804 9.58123 17.8503 10.0266 17.8503 10.5C17.8503 10.9725 18.0804 11.4178 18.4619 11.6987L19.7972 12.684C20.0737 12.8887 20.1909 13.2457 20.0894 13.5738C19.6183 15.0964 18.8085 16.4925 17.7208 17.6575C17.607 17.7796 17.458 17.8633 17.2945 17.897C17.131 17.9307 16.9619 17.9127 16.8091 17.8456ZM12.0421 17.6723C12.2509 17.0184 12.6953 16.4655 13.2889 16.121C13.6709 15.9009 14.0991 15.7735 14.5392 15.7491C14.9793 15.7246 15.419 15.8037 15.8229 15.9801L16.9989 16.4963C17.7543 15.6217 18.339 14.6132 18.7227 13.5231L17.6823 12.7557C17.3281 12.4957 17.0399 12.1552 16.841 11.7634C16.642 11.3716 16.5379 10.9385 16.5369 10.4991C16.5369 9.60048 16.9718 8.7666 17.6806 8.2451L17.6823 8.24423L18.7209 7.47686C18.337 6.38694 17.752 5.37872 16.9963 4.50449L15.8299 5.01724L15.8282 5.01811C15.4729 5.17561 15.0906 5.25611 14.7029 5.25611C14.0136 5.25507 13.3489 4.99996 12.8359 4.53956C12.3228 4.07917 11.9975 3.4458 11.9222 2.76062V2.75887L11.7796 1.48137C11.2167 1.37654 10.6458 1.32004 10.0733 1.3125C9.49354 1.31979 8.91543 1.37628 8.3452 1.48137L8.20258 2.75974C8.15349 3.19587 8.00278 3.6144 7.76257 3.98171C7.52235 4.34902 7.19933 4.65487 6.81946 4.87468C6.43959 5.09448 6.01345 5.22212 5.57529 5.24733C5.13713 5.27255 4.69917 5.19464 4.29659 5.01986L3.12759 4.50536C2.37188 5.37957 1.78689 6.3878 1.40297 7.47773L2.44422 8.2451C2.79768 8.5054 3.08501 8.84513 3.28303 9.23688C3.48105 9.62864 3.58423 10.0615 3.58423 10.5004C3.58423 10.9394 3.48105 11.3722 3.28303 11.7639C3.08501 12.1557 2.79768 12.4954 2.44422 12.7557L1.40297 13.524C1.78616 14.6156 2.37087 15.6257 3.12672 16.5016L4.30359 15.9853C4.70494 15.8097 5.14196 15.7308 5.5794 15.7551C6.01684 15.7794 6.44243 15.9062 6.82183 16.1253C7.20107 16.3444 7.52363 16.6494 7.76359 17.0158C8.00354 17.3822 8.1542 17.7998 8.20345 18.235V18.2393L8.3452 19.5203C9.48007 19.7434 10.6464 19.7434 11.7813 19.5203L11.9231 18.2367C11.9441 18.0442 11.9843 17.8543 12.0438 17.6723" fill="white"/>
</svg>
