<svg width="8" height="6" viewBox="0 0 8 6" fill="none" xmlns="http://www.w3.org/2000/svg">
<path d="M3.92497 5.66197L0.824102 1.41294C0.74287 1.30158 0.691116 1.16609 0.674904 1.02234C0.658691 0.878591 0.678693 0.732546 0.732564 0.601314C0.786435 0.470082 0.871945 0.3591 0.979073 0.281372C1.0862 0.203644 1.21051 0.162391 1.33744 0.162445H6.83302C6.95987 0.162572 7.08407 0.203957 7.19108 0.281756C7.29808 0.359554 7.38346 0.470547 7.43723 0.601745C7.491 0.732942 7.51093 0.878914 7.49469 1.02257C7.47845 1.16624 7.4267 1.30164 7.34552 1.41294L4.24549 5.66197C4.2259 5.68878 4.2014 5.71036 4.1737 5.72516C4.14601 5.73997 4.11581 5.74764 4.08523 5.74764C4.05465 5.74764 4.02444 5.73997 3.99675 5.72516C3.96906 5.71036 3.94455 5.68878 3.92497 5.66197Z" fill="white"/>
</svg>
