<svg width="54" height="48" viewBox="0 0 54 48" fill="none" xmlns="http://www.w3.org/2000/svg">
<g opacity="0.3">
<rect width="54" height="48" rx="4" fill="#FFD600"/>
<path d="M42.2657 11.5928C43.0368 9.45968 40.9698 7.39265 38.8367 8.16556L12.7668 17.5939C10.6266 18.3686 10.3678 21.2889 12.3366 22.4295L20.6583 27.2472L28.0892 19.8162C28.4259 19.4911 28.8768 19.3112 29.3448 19.3152C29.8128 19.3193 30.2605 19.507 30.5915 19.838C30.9224 20.1689 31.1101 20.6166 31.1142 21.0847C31.1183 21.5527 30.9384 22.0036 30.6132 22.3402L23.1823 29.7712L28.0018 38.0928C29.1406 40.0617 32.0608 39.8011 32.8355 37.6627L42.2657 11.5928Z" fill="white"/>
</g>
</svg>
