<svg width="21" height="21" viewBox="0 0 21 21" fill="none" xmlns="http://www.w3.org/2000/svg">
<path d="M10.5 1.43183C8.4832 1.42846 6.52337 2.10056 4.93309 3.34092H6.44318C6.63305 3.34092 6.81515 3.41635 6.94941 3.55061C7.08366 3.68486 7.15909 3.86696 7.15909 4.05683C7.15909 4.2467 7.08366 4.4288 6.94941 4.56305C6.81515 4.69731 6.63305 4.77274 6.44318 4.77274H3.10227C2.9124 4.77274 2.73031 4.69731 2.59605 4.56305C2.46179 4.4288 2.38636 4.2467 2.38636 4.05683V0.715921C2.38636 0.52605 2.46179 0.343955 2.59605 0.209696C2.73031 0.0754374 2.9124 1.16097e-05 3.10227 1.16097e-05C3.29214 1.16097e-05 3.47424 0.0754374 3.6085 0.209696C3.74276 0.343955 3.81818 0.52605 3.81818 0.715921V2.39974C5.69753 0.845223 8.06106 -0.0036208 10.5 1.16097e-05C16.2989 1.16097e-05 21 4.70115 21 10.5C21 16.2989 16.2989 21 10.5 21C4.70114 21 0 16.2989 0 10.5C0 9.96356 0.0410455 9.68292 0.109773 9.21424L0.111682 9.20278C0.140944 9.01642 0.242579 8.84914 0.394497 8.73731C0.546414 8.62547 0.736335 8.57811 0.922976 8.60553C1.10962 8.63294 1.27789 8.73292 1.39123 8.88373C1.50457 9.03453 1.5538 9.22397 1.52823 9.41088V9.41278C1.46141 9.87097 1.43182 10.0686 1.43182 10.5C1.43182 12.2935 1.96366 14.0468 2.96008 15.538C3.95651 17.0293 5.37276 18.1916 7.02976 18.8779C8.68675 19.5643 10.5101 19.7438 12.2691 19.394C14.0282 19.0441 15.644 18.1804 16.9122 16.9122C18.1804 15.644 19.044 14.0282 19.3939 12.2691C19.7438 10.5101 19.5643 8.68676 18.8779 7.02977C18.1916 5.37278 17.0293 3.95652 15.538 2.96009C14.0468 1.96367 12.2935 1.43183 10.5 1.43183ZM10.9773 4.5341C10.9773 4.34423 10.9018 4.16214 10.7676 4.02788C10.6333 3.89362 10.4512 3.81819 10.2614 3.81819C10.0715 3.81819 9.8894 3.89362 9.75514 4.02788C9.62088 4.16214 9.54545 4.34423 9.54545 4.5341V10.7386C9.54545 11.1338 9.86618 11.4546 10.2614 11.4546H13.125C13.3149 11.4546 13.497 11.3791 13.6312 11.2449C13.7655 11.1106 13.8409 10.9285 13.8409 10.7386C13.8409 10.5488 13.7655 10.3667 13.6312 10.2324C13.497 10.0982 13.3149 10.0227 13.125 10.0227H10.9773V4.5341Z" fill="white"/>
</svg>
