<svg width="22" height="22" viewBox="0 0 22 22" fill="none" xmlns="http://www.w3.org/2000/svg">
<path d="M10 16.75C10 16.9489 10.079 17.1397 10.2197 17.2803C10.3603 17.421 10.5511 17.5 10.75 17.5C10.9489 17.5 11.1397 17.421 11.2803 17.2803C11.421 17.1397 11.5 16.9489 11.5 16.75V13.75C11.5 13.5511 11.421 13.3603 11.2803 13.2197C11.1397 13.079 10.9489 13 10.75 13C10.5511 13 10.3603 13.079 10.2197 13.2197C10.079 13.3603 10 13.5511 10 13.75V16.75Z" fill="white"/>
<path fill-rule="evenodd" clip-rule="evenodd" d="M10.75 0C10.042 0 9.399 0.203 8.7 0.542C8.026 0.87 7.246 1.354 6.273 1.958L4.206 3.241C3.286 3.813 2.547 4.271 1.979 4.706C1.39 5.156 0.938 5.616 0.611 6.213C0.285 6.808 0.139 7.442 0.068 8.191C-4.47035e-08 8.916 0 9.804 0 10.917V12.53C0 14.434 0 15.937 0.153 17.112C0.309 18.317 0.639 19.29 1.383 20.059C2.13 20.832 3.08 21.178 4.258 21.341C5.398 21.5 6.856 21.5 8.692 21.5H12.808C14.644 21.5 16.102 21.5 17.242 21.341C18.419 21.178 19.37 20.832 20.118 20.059C20.861 19.29 21.191 18.317 21.348 17.112C21.5 15.937 21.5 14.434 21.5 12.53V10.917C21.5 9.804 21.5 8.917 21.432 8.191C21.362 7.441 21.215 6.808 20.889 6.213C20.562 5.616 20.109 5.157 19.521 4.706C18.953 4.27 18.215 3.813 17.294 3.241L15.227 1.958C14.254 1.354 13.474 0.87 12.799 0.542C12.102 0.202 11.459 0 10.75 0ZM7.03 3.254C8.045 2.624 8.76 2.182 9.357 1.891C9.938 1.608 10.35 1.5 10.75 1.5C11.15 1.5 11.562 1.608 12.143 1.891C12.741 2.181 13.455 2.624 14.47 3.254L16.47 4.495C17.431 5.092 18.106 5.511 18.61 5.897C19.099 6.272 19.38 6.581 19.573 6.933C19.766 7.286 19.879 7.699 19.938 8.331C19.999 8.979 20 9.796 20 10.954V12.475C20 14.445 19.998 15.851 19.86 16.918C19.724 17.966 19.467 18.574 19.04 19.017C18.615 19.456 18.037 19.717 17.036 19.856C16.01 19.998 14.657 20 12.75 20H8.75C6.842 20 5.49 19.998 4.464 19.856C3.463 19.716 2.885 19.456 2.461 19.016C2.033 18.574 1.776 17.966 1.641 16.918C1.501 15.851 1.5 14.446 1.5 12.475V10.954C1.5 9.796 1.5 8.979 1.562 8.331C1.621 7.699 1.734 7.286 1.927 6.933C2.12 6.581 2.401 6.272 2.891 5.897C3.394 5.511 4.069 5.092 5.03 4.495L7.03 3.254Z" fill="white"/>
</svg>
