<svg width="17" height="21" viewBox="0 0 17 21" fill="none" xmlns="http://www.w3.org/2000/svg">
<path fill-rule="evenodd" clip-rule="evenodd" d="M0.867414 0.867414C1.42281 0.312018 2.17609 0 2.96154 0H13.7308C14.5162 0 15.2695 0.312018 15.8249 0.867414C16.3803 1.42281 16.6923 2.17609 16.6923 2.96154V4.03846C16.6923 4.48454 16.3307 4.84615 15.8846 4.84615C15.4385 4.84615 15.0769 4.48454 15.0769 4.03846V2.96154C15.0769 2.60452 14.9351 2.26212 14.6826 2.00966C14.4302 1.75721 14.0878 1.61538 13.7308 1.61538H2.96154C2.60452 1.61538 2.26212 1.75721 2.00966 2.00966C1.75721 2.26212 1.61538 2.60452 1.61538 2.96154V18.0385C1.61538 18.3955 1.75721 18.7379 2.00966 18.9903C2.26212 19.2428 2.60452 19.3846 2.96154 19.3846H13.7308C14.0878 19.3846 14.4302 19.2428 14.6826 18.9903C14.9351 18.7379 15.0769 18.3955 15.0769 18.0385V16.9615C15.0769 16.5155 15.4385 16.1538 15.8846 16.1538C16.3307 16.1538 16.6923 16.5155 16.6923 16.9615V18.0385C16.6923 18.8239 16.3803 19.5772 15.8249 20.1326C15.2695 20.688 14.5162 21 13.7308 21H2.96154C2.17609 21 1.42281 20.688 0.867414 20.1326C0.312018 19.5772 0 18.8239 0 18.0385V2.96154C0 2.17609 0.312018 1.42281 0.867414 0.867414ZM12.0827 6.69811C12.3981 6.38268 12.9095 6.38268 13.225 6.69811L16.4557 9.92888C16.7712 10.2443 16.7712 10.7557 16.4557 11.0711L13.225 14.3019C12.9095 14.6173 12.3981 14.6173 12.0827 14.3019C11.7673 13.9865 11.7673 13.4751 12.0827 13.1596L13.9347 11.3077H8.34615C7.90008 11.3077 7.53846 10.9461 7.53846 10.5C7.53846 10.0539 7.90008 9.69231 8.34615 9.69231H13.9347L12.0827 7.84036C11.7673 7.52493 11.7673 7.01353 12.0827 6.69811Z" fill="white"/>
</svg>
