<svg width="40" height="35" viewBox="0 0 40 35" fill="none" xmlns="http://www.w3.org/2000/svg">
<rect width="39.0698" height="35" rx="3.55556" fill="#968426"/>
<path d="M30.8107 8.30293C31.3698 6.75612 29.871 5.25721 28.3243 5.81769L9.42065 12.6547C7.86876 13.2165 7.68108 15.3341 9.10872 16.1612L15.1429 19.6548L20.5311 14.2662C20.7752 14.0304 21.1022 13.9 21.4416 13.9029C21.7809 13.9059 22.1056 14.042 22.3455 14.282C22.5855 14.522 22.7216 14.8466 22.7246 15.186C22.7275 15.5254 22.5971 15.8524 22.3613 16.0965L16.973 21.4851L20.4677 27.5195C21.2935 28.9472 23.411 28.7583 23.9727 27.2076L30.8107 8.30293Z" fill="white"/>
</svg>
