<svg width="30" height="32" viewBox="0 0 30 32" fill="none" xmlns="http://www.w3.org/2000/svg">
<path d="M15.4606 0.287476C12.6613 0.28799 9.91457 1.04839 7.51352 2.48756C5.11246 3.92673 3.14711 5.99068 1.82711 8.45926C0.507102 10.9278 -0.118037 13.7084 0.0183738 16.5044C0.154784 19.3005 1.04763 22.007 2.60166 24.3354C4.1557 26.6637 6.31263 28.5265 8.84237 29.7252C11.3721 30.9238 14.1798 31.4132 16.9659 31.1412C19.752 30.8692 22.412 29.846 24.6621 28.1808C26.9123 26.5156 28.6683 24.2707 29.7426 21.6858C30.2699 20.4178 29.0066 19.1436 27.7355 19.6601C25.557 20.5425 23.1381 20.6336 20.8993 19.9174C18.6606 19.2013 16.7437 17.7232 15.4819 15.7401C14.22 13.7571 13.693 11.3945 13.9926 9.06321C14.2921 6.73191 15.3992 4.5793 17.1214 2.97966L17.2404 2.85595C18.0925 1.88176 17.4152 0.299846 16.0683 0.299846H15.657L15.5518 0.290568L15.4606 0.287476Z" fill="white"/>
</svg>
