<svg width="35" height="35" viewBox="0 0 35 35" fill="none" xmlns="http://www.w3.org/2000/svg">
<path d="M0.5 20C0.5 9.23045 9.23045 0.5 20 0.5H34.5V15C34.5 25.7696 25.7696 34.5 15 34.5H0.5V20Z" stroke="white"/>
<path d="M16.5 15.6161C15.263 15.6161 14.2035 15.1939 13.3215 14.3496C12.4395 13.5052 11.999 12.4913 12 11.3081C12 10.1229 12.4405 9.10808 13.3215 8.2637C14.2025 7.42123 15.262 7 16.5 7C17.738 7 18.7975 7.42123 19.6785 8.2637C20.5595 9.10808 21 10.1229 21 11.3081C21 12.4923 20.5595 13.5061 19.6785 14.3496C18.7975 15.193 17.738 15.6152 16.5 15.6161ZM6 25.9986V23.6363C6 23.0437 6.18 22.4894 6.54 21.9734C6.901 21.4564 7.386 21.0553 7.995 20.77C9.411 20.12 10.8275 19.6327 12.2445 19.3081C13.6625 18.9826 15.081 18.8199 16.5 18.8199C17.92 18.8199 19.3385 18.9826 20.7555 19.3081C22.1725 19.6336 23.5885 20.1209 25.0035 20.77C25.6135 21.0553 26.0985 21.4564 26.4585 21.9734C26.8195 22.4894 27 23.0437 27 23.6363V26L6 25.9986ZM7.5 24.5625H25.5V23.6349C25.5 23.317 25.393 23.0179 25.179 22.7374C24.964 22.4578 24.667 22.2213 24.288 22.028C23.054 21.4555 21.781 21.017 20.469 20.7126C19.159 20.4072 17.836 20.2545 16.5 20.2545C15.165 20.2545 13.842 20.4072 12.531 20.7126C11.219 21.017 9.946 21.4555 8.712 22.028C8.332 22.2213 8.035 22.4578 7.821 22.7374C7.607 23.0179 7.5 23.3175 7.5 23.6363V24.5625ZM16.5 14.1801C17.325 14.1801 18.0315 13.8986 18.6195 13.3357C19.2075 12.7728 19.501 12.0969 19.5 11.3081C19.5 10.5183 19.2065 9.84189 18.6195 9.27897C18.0325 8.71605 17.326 8.43506 16.5 8.43602C15.675 8.43602 14.969 8.717 14.382 9.27897C13.795 9.84093 13.501 10.5173 13.5 11.3081C13.5 12.0979 13.794 12.7738 14.382 13.3357C14.97 13.8977 15.676 14.1792 16.5 14.1801Z" fill="#FB003C"/>
</svg>
