<svg width="34" height="33" viewBox="0 0 34 33" fill="none" xmlns="http://www.w3.org/2000/svg">
<path fill-rule="evenodd" clip-rule="evenodd" d="M32.8242 5.43856C32.9875 5.68633 33.0602 5.98285 33.0302 6.27803C33.0001 6.57322 32.8691 6.849 32.6593 7.05879L16.8642 22.8521C16.7027 23.0136 16.501 23.1292 16.2801 23.1872L9.70123 24.9053C9.48376 24.962 9.25524 24.9609 9.03835 24.902C8.82146 24.8431 8.62375 24.7285 8.46483 24.5696C8.30591 24.4107 8.19132 24.213 8.13243 23.9961C8.07354 23.7792 8.0724 23.5507 8.12911 23.3332L9.84727 16.7561C9.89743 16.5587 9.99205 16.3753 10.1239 16.22L25.9774 0.376861C26.219 0.135545 26.5465 0 26.888 0C27.2295 0 27.557 0.135545 27.7986 0.376861L32.6593 5.23582C32.7209 5.29768 32.7762 5.36561 32.8242 5.43856ZM29.9257 6.14644L26.888 3.11045L12.2527 17.7457L11.1788 21.8573L15.2904 20.7835L29.9257 6.14644Z" fill="white"/>
<path d="M29.7077 25.6166C30.1773 21.6029 30.3273 17.5582 30.1561 13.5208C30.1524 13.4256 30.1683 13.3308 30.2029 13.2421C30.2375 13.1534 30.29 13.0728 30.3572 13.0053L32.0478 11.3147C32.094 11.2682 32.1527 11.2361 32.2167 11.2221C32.2807 11.2082 32.3474 11.213 32.4087 11.2361C32.47 11.2591 32.5234 11.2994 32.5624 11.352C32.6014 11.4047 32.6244 11.4675 32.6286 11.5329C32.9468 16.3287 32.826 21.1435 32.2677 25.9173C31.8623 29.3914 29.072 32.1147 25.6133 32.5013C19.6089 33.1662 13.5495 33.1662 7.54514 32.5013C4.0882 32.1147 1.29619 29.3914 0.890708 25.9173C0.178358 19.8271 0.178358 13.6747 0.890708 7.58453C1.29619 4.11041 4.08649 1.38712 7.54514 1.00054C12.1023 0.495194 16.6939 0.372776 21.2715 0.634567C21.337 0.639271 21.3998 0.662651 21.4525 0.701939C21.5051 0.741227 21.5454 0.794776 21.5685 0.856245C21.5917 0.917714 21.5967 0.984527 21.583 1.04877C21.5694 1.11302 21.5376 1.172 21.4914 1.21874L19.7853 2.92316C19.7185 2.98973 19.6387 3.04192 19.551 3.07649C19.4632 3.11106 19.3693 3.12729 19.275 3.12418C15.4551 2.99433 11.6309 3.14076 7.83207 3.56231C6.72204 3.68517 5.68584 4.17866 4.89085 4.96304C4.09586 5.74743 3.58852 6.77692 3.45077 7.8852C2.76187 13.7756 2.76187 19.7262 3.45077 25.6166C3.58852 26.7249 4.09586 27.7544 4.89085 28.5388C5.68584 29.3232 6.72204 29.8166 7.83207 29.9395C13.5965 30.5838 19.562 30.5838 25.3281 29.9395C26.4381 29.8166 27.4743 29.3232 28.2693 28.5388C29.0643 27.7544 29.5699 26.7249 29.7077 25.6166Z" fill="white"/>
</svg>
