<svg width="55" height="55" viewBox="0 0 55 55" fill="none" xmlns="http://www.w3.org/2000/svg">
<path d="M0.5 20C0.5 9.23045 9.23045 0.5 20 0.5H54.5V35C54.5 45.7696 45.7696 54.5 35 54.5H0.5V20Z" stroke="white"/>
<path d="M27.6655 26.2846C25.7022 26.2846 24.0205 25.5847 22.6206 24.1848C21.2207 22.7849 20.5216 21.1041 20.5232 19.1423C20.5232 17.1774 21.2223 15.495 22.6206 14.0951C24.0189 12.6984 25.7006 12 27.6655 12C29.6305 12 31.3121 12.6984 32.7104 14.0951C34.1087 15.495 34.8079 17.1774 34.8079 19.1423C34.8079 21.1057 34.1087 22.7865 32.7104 24.1848C31.3121 25.5831 29.6305 26.283 27.6655 26.2846ZM11 43.4976V39.5812C11 38.5988 11.2857 37.6798 11.8571 36.8243C12.4301 35.9672 13.1998 35.3022 14.1664 34.8292C16.4139 33.7515 18.6622 32.9437 20.9112 32.4056C23.1619 31.866 25.4133 31.5961 27.6655 31.5961C29.9193 31.5961 32.1708 31.866 34.4198 32.4056C36.6689 32.9452 38.9163 33.7531 41.1622 34.8292C42.1304 35.3022 42.9002 35.9672 43.4716 36.8243C44.0446 37.6798 44.3311 38.5988 44.3311 39.5812V43.5L11 43.4976ZM13.3808 41.1168H41.9503V39.5789C41.9503 39.0519 41.7804 38.5559 41.4408 38.0909C41.0995 37.6274 40.6281 37.2354 40.0266 36.9148C38.068 35.9657 36.0475 35.2387 33.9651 34.734C31.8859 34.2277 29.786 33.9745 27.6655 33.9745C25.5466 33.9745 23.4468 34.2277 21.366 34.734C19.2836 35.2387 17.2631 35.9657 15.3045 36.9148C14.7013 37.2354 14.2299 37.6274 13.8903 38.0909C13.5506 38.5559 13.3808 39.0527 13.3808 39.5812V41.1168ZM27.6655 23.9039C28.975 23.9039 30.0963 23.4372 31.0296 22.504C31.9629 21.5707 32.4287 20.4502 32.4271 19.1423C32.4271 17.8329 31.9613 16.7115 31.0296 15.7783C30.0979 14.845 28.9765 14.3792 27.6655 14.3808C26.3561 14.3808 25.2355 14.8466 24.3039 15.7783C23.3722 16.71 22.9055 17.8313 22.9039 19.1423C22.9039 20.4517 23.3706 21.5723 24.3039 22.504C25.2371 23.4356 26.3577 23.9023 27.6655 23.9039Z" fill="#FB003C"/>
</svg>
