<svg width="17" height="12" viewBox="0 0 17 12" fill="none" xmlns="http://www.w3.org/2000/svg">
<path fill-rule="evenodd" clip-rule="evenodd" d="M0 5.91317C0 5.44663 0.378208 5.06842 0.84475 5.06842H16.0503C16.5168 5.06842 16.895 5.44663 16.895 5.91317C16.895 6.37971 16.5168 6.75792 16.0503 6.75792H0.84475C0.378208 6.75792 0 6.37971 0 5.91317Z" fill="white" fill-opacity="0.7"/>
<path fill-rule="evenodd" clip-rule="evenodd" d="M0 0.84475C0 0.378208 0.378208 0 0.84475 0H16.0503C16.5168 0 16.895 0.378208 16.895 0.84475C16.895 1.31129 16.5168 1.6895 16.0503 1.6895H0.84475C0.378208 1.6895 0 1.31129 0 0.84475Z" fill="white" fill-opacity="0.7"/>
<path fill-rule="evenodd" clip-rule="evenodd" d="M0 10.9818C0 10.5152 0.378208 10.137 0.84475 10.137H16.0503C16.5168 10.137 16.895 10.5152 16.895 10.9818C16.895 11.4483 16.5168 11.8265 16.0503 11.8265H0.84475C0.378208 11.8265 0 11.4483 0 10.9818Z" fill="white" fill-opacity="0.7"/>
</svg>
