<svg width="22" height="22" viewBox="0 0 22 22" fill="none" xmlns="http://www.w3.org/2000/svg">
<path d="M21.4347 11.215C21.4381 13.2435 20.8348 15.2266 19.7023 16.9095C18.7684 18.3024 17.5057 19.4437 16.0258 20.2326C14.5459 21.0215 12.8944 21.4335 11.2174 21.4324C9.54035 21.4335 7.88887 21.0215 6.40897 20.2326C4.92907 19.4437 3.66633 18.3024 2.73241 16.9095C1.84319 15.584 1.27689 14.0686 1.07891 12.4847C0.880922 10.9009 1.05676 9.29272 1.59232 7.7891C2.12788 6.28548 3.00828 4.92824 4.16292 3.8262C5.31756 2.72416 6.71434 1.90796 8.24128 1.44304C9.76822 0.978117 11.3829 0.877401 12.9557 1.14897C14.5286 1.42053 16.016 2.05683 17.2986 3.00684C18.5813 3.95685 19.6235 5.19416 20.3418 6.61957C21.06 8.04498 21.4344 9.61885 21.4347 11.215Z" stroke="white" stroke-width="1.13526"/>
<path d="M12.9203 7.80921C12.9203 8.26085 12.7409 8.69399 12.4215 9.01334C12.1022 9.3327 11.669 9.51211 11.2174 9.51211V10.6474C11.5901 10.6474 11.9592 10.574 12.3035 10.4313C12.6478 10.2887 12.9607 10.0796 13.2243 9.81609C13.4878 9.55255 13.6969 9.23967 13.8395 8.89533C13.9821 8.55099 14.0555 8.18192 14.0555 7.80921H12.9203ZM11.2174 9.51211C10.7658 9.51211 10.3326 9.3327 10.0133 9.01334C9.69391 8.69399 9.5145 8.26085 9.5145 7.80921H8.37923C8.37923 8.18192 8.45264 8.55099 8.59527 8.89533C8.7379 9.23967 8.94696 9.55255 9.21051 9.81609C9.74277 10.3484 10.4647 10.6474 11.2174 10.6474V9.51211ZM9.5145 7.80921C9.5145 7.35758 9.69391 6.92444 10.0133 6.60508C10.3326 6.28573 10.7658 6.10632 11.2174 6.10632V4.97105C10.4647 4.97105 9.74277 5.27007 9.21051 5.80233C8.67825 6.33459 8.37923 7.05649 8.37923 7.80921H9.5145ZM11.2174 6.10632C11.669 6.10632 12.1022 6.28573 12.4215 6.60508C12.7409 6.92444 12.9203 7.35758 12.9203 7.80921H14.0555C14.0555 7.05649 13.7565 6.33459 13.2243 5.80233C12.692 5.27007 11.9701 4.97105 11.2174 4.97105V6.10632ZM3.459 17.8631L2.91408 17.7019L2.82666 17.9982L3.0276 18.2332L3.459 17.8631ZM18.9758 17.8631L19.4072 18.2332L19.6081 17.9982L19.5196 17.7019L18.9758 17.8631ZM7.8116 15.1884H14.6232V14.0532H7.8116V15.1884ZM7.8116 14.0532C6.71146 14.0534 5.64074 14.4085 4.75859 15.0659C3.87645 15.7233 3.22882 16.6477 2.91408 17.7019L4.00279 18.0254C4.24785 17.2057 4.75084 16.4868 5.43702 15.9757C6.12321 15.4646 6.95598 15.1885 7.8116 15.1884V14.0532ZM11.2174 20.8647C9.82473 20.8662 8.44832 20.5655 7.18315 19.9834C5.91798 19.4013 4.79417 18.5516 3.88927 17.493L3.0276 18.2332C4.03918 19.4159 5.29522 20.3651 6.70911 21.0154C8.123 21.6657 9.66112 22.0016 11.2174 22V20.8647ZM14.6232 15.1884C15.4789 15.1886 16.3118 15.4648 16.998 15.9762C17.6842 16.4875 18.1871 17.2066 18.432 18.0266L19.5196 17.7019C19.2048 16.6477 18.5583 15.7233 17.6762 15.0659C16.794 14.4085 15.7233 14.0534 14.6232 14.0532V15.1884ZM18.5455 17.493C17.6406 18.5516 16.5168 19.4013 15.2516 19.9834C13.9865 20.5655 12.6101 20.8662 11.2174 20.8647V22C12.7737 22.0016 14.3118 21.6657 15.7257 21.0154C17.1396 20.3651 18.3956 19.4159 19.4072 18.2332L18.5455 17.493Z" fill="white"/>
</svg>
